<?xml version="1.0" standalone="no"?>
<!DOCTYPE svg PUBLIC "-//W3C//DTD SVG 20010904//EN"
 "http://www.w3.org/TR/2001/REC-SVG-20010904/DTD/svg10.dtd">
<svg version="1.0" xmlns="http://www.w3.org/2000/svg"
 width="1150.000000pt" height="325.000000pt" viewBox="0 0 1150.000000 325.000000"
 preserveAspectRatio="xMidYMid meet">
<metadata>
Created by potrace 1.10, written by Peter Selinger 2001-2011
</metadata>
<g transform="translate(0.000000,325.000000) scale(0.100000,-0.100000)"
fill="#000000" stroke="none">
<path d="M2641 2817 c-55 -166 -101 -306 -101 -310 0 -4 135 -7 300 -5 264 3
300 1 294 -12 -3 -8 -31 -88 -61 -177 l-55 -163 -293 0 -292 0 -25 -71 -26
-70 417 7 c229 3 416 7 416 8 0 0 45 138 101 305 66 200 96 305 89 307 -7 3
-141 4 -298 2 -158 -2 -287 -3 -287 -3 0 0 24 77 53 170 l53 170 296 0 296 0
21 66 c11 36 21 68 21 72 0 4 -184 7 -409 7 l-409 0 -101 -303z m879 269 c0
-5 -5 -26 -12 -47 l-11 -39 -282 0 c-281 0 -282 0 -303 -23 -12 -13 -25 -38
-28 -57 -4 -19 -11 -43 -16 -53 -5 -10 -11 -26 -13 -37 -2 -10 -15 -54 -29
-99 -32 -99 -25 -121 39 -121 22 -1 145 0 273 0 182 1 232 -2 232 -12 -1 -18
-41 -148 -100 -323 -28 -82 -55 -167 -61 -188 -5 -21 -14 -35 -19 -32 -6 4
-10 1 -10 -4 0 -8 -118 -11 -375 -11 l-375 0 0 23 c0 12 7 33 16 45 15 22 17
22 293 22 206 0 281 3 293 13 13 9 50 99 63 152 1 6 5 17 8 25 52 136 60 175
41 194 -13 14 -54 16 -290 16 -214 0 -274 3 -274 13 0 7 9 37 21 67 11 30 22
63 24 72 2 10 20 64 40 120 20 57 38 110 40 119 2 9 15 50 30 92 21 59 32 77
49 79 52 7 736 2 736 -6z"/>
<path d="M3441 2571 c-100 -302 -181 -551 -181 -553 0 -1 53 -1 117 2 l117 5
22 70 c12 39 46 146 76 238 l53 168 195 0 c107 0 199 0 204 -1 5 0 4 -6 -2
-12 -5 -7 -21 -52 -36 -99 -14 -47 -46 -148 -71 -225 -25 -76 -45 -140 -45
-141 0 -2 54 -3 120 -3 93 0 120 3 120 13 0 8 34 121 76 253 41 131 116 370
166 529 50 160 92 293 95 298 2 4 -187 7 -421 7 l-425 0 -180 -549z m981 493
c-1 -16 -9 -45 -16 -64 -8 -19 -30 -89 -51 -155 -20 -66 -57 -183 -82 -260
-24 -77 -46 -147 -48 -156 -2 -9 -22 -74 -45 -145 -23 -71 -48 -150 -57 -177
-8 -26 -22 -51 -31 -56 -10 -5 -50 -8 -89 -8 -87 0 -86 -2 -43 112 16 44 30
89 30 100 0 12 4 25 8 30 5 6 14 30 22 55 7 25 20 68 30 95 20 62 17 81 -18
90 -40 10 -373 5 -394 -6 -10 -5 -18 -16 -18 -24 0 -8 -3 -15 -7 -15 -5 0 -9
-10 -10 -23 0 -12 -7 -35 -14 -52 -6 -16 -14 -38 -15 -47 -2 -9 -11 -36 -20
-60 -8 -24 -18 -52 -21 -63 -13 -51 -45 -152 -54 -170 -9 -18 -21 -21 -94 -23
-81 -2 -83 -2 -80 20 1 13 28 102 60 198 32 96 95 290 141 430 46 140 95 287
108 325 l23 70 74 5 c41 3 218 5 394 4 l320 -1 -3 -29z"/>
<path d="M3787 2982 c-26 -26 -122 -332 -110 -351 9 -14 41 -16 215 -19 204
-2 204 -2 216 20 6 13 33 93 61 178 l50 155 -21 18 c-19 16 -42 18 -208 17
-157 -1 -190 -4 -203 -18z m410 -13 c-3 -8 -29 -85 -58 -171 l-52 -157 -199
-3 c-109 -2 -198 -2 -198 -1 0 2 23 74 51 160 28 87 52 163 53 168 2 6 83 11
206 14 169 3 202 1 197 -10z"/>
<path d="M376 3043 c-158 -497 -318 -997 -323 -1010 -4 -10 87 -13 434 -13
l438 0 21 65 20 65 -323 0 c-178 0 -323 2 -323 4 0 2 9 28 19 58 11 29 34 101
52 161 l33 107 93 0 c55 0 93 -4 93 -10 0 -5 -4 -10 -8 -10 -11 0 -57 -150
-53 -170 1 -8 7 -19 12 -25 6 -6 109 -10 269 -10 142 0 262 -3 266 -7 4 -4 2
-13 -3 -20 -6 -7 -14 -31 -17 -53 -4 -22 -13 -49 -21 -61 -7 -11 -15 -31 -17
-45 -3 -21 -8 -24 -45 -24 -25 0 -45 -5 -48 -12 -3 -10 11 -13 54 -13 l58 0
37 124 c20 68 36 126 36 130 0 3 -128 6 -284 6 l-284 0 32 100 31 99 289 3
289 3 34 100 c18 54 35 106 38 115 4 13 -27 15 -286 12 -233 -2 -290 0 -285
10 2 7 15 46 28 86 l23 72 285 -1 285 -1 36 106 35 106 -502 0 -502 0 -16 -47z
m899 27 c-4 -6 10 -10 33 -10 39 0 60 -18 42 -36 -4 -5 -15 -32 -24 -60 -12
-37 -23 -54 -39 -58 -12 -3 -136 -6 -276 -6 -251 0 -254 0 -275 -23 -12 -12
-20 -30 -18 -39 2 -9 -2 -19 -7 -23 -6 -3 -11 -15 -11 -26 0 -13 -4 -18 -12
-13 -7 5 -8 3 -3 -7 5 -7 8 -26 7 -41 -1 -14 3 -30 10 -34 7 -4 128 -8 270 -8
206 -1 260 -4 270 -15 10 -10 10 -12 1 -7 -12 6 -18 -11 -14 -36 0 -5 -3 -8
-8 -8 -5 0 -7 -10 -3 -22 4 -16 2 -19 -8 -13 -10 6 -12 4 -8 -7 4 -8 -2 -28
-11 -44 -14 -23 -25 -29 -52 -28 -19 0 -40 -4 -46 -9 -19 -14 -16 10 6 76 l20
57 -326 0 c-279 0 -324 2 -320 14 3 8 27 83 53 165 l48 151 325 0 326 0 18 60
c9 33 22 60 28 60 5 0 7 -4 4 -10z m-64 -5 c21 -7 25 -35 9 -66 -10 -18 -24
-19 -320 -19 -169 0 -315 -3 -323 -6 -9 -3 -31 -55 -52 -122 -20 -64 -40 -124
-45 -133 -16 -31 -22 -86 -11 -94 6 -3 149 -6 316 -6 168 0 305 -3 305 -7 0
-5 -7 -32 -15 -60 l-16 -52 -197 -1 c-108 0 -251 -2 -317 -5 -105 -4 -122 -8
-137 -26 -10 -11 -18 -27 -18 -35 0 -8 -18 -73 -41 -145 -24 -75 -37 -134 -32
-139 5 -5 149 -9 320 -10 l312 -1 -17 -46 -18 -47 -408 0 c-224 0 -410 3 -412
7 -3 4 12 58 33 120 20 62 36 116 35 120 -1 4 6 24 15 45 9 21 17 43 17 48 1
6 20 66 42 135 23 69 63 193 88 275 26 83 50 157 53 165 4 8 11 33 17 55 8 28
17 41 34 45 34 7 759 12 783 5z"/>
<path d="M1078 2993 c7 -3 16 -2 19 1 4 3 -2 6 -13 5 -11 0 -14 -3 -6 -6z"/>
<path d="M1403 2993 c-17 -54 -86 -269 -153 -478 -66 -209 -130 -406 -140
-437 l-19 -58 447 0 447 0 21 65 22 65 -335 0 c-310 0 -335 1 -329 17 4 9 30
89 57 177 28 89 64 204 81 256 35 112 59 188 89 288 l22 72 336 0 336 0 18 60
c9 33 22 60 27 60 6 0 10 -4 10 -9 0 -4 8 -8 18 -8 45 0 52 -4 52 -26 0 -13
-6 -29 -12 -36 -11 -11 -10 -12 0 -7 7 4 4 -7 -7 -25 -11 -18 -18 -36 -15 -40
2 -4 0 -10 -6 -14 -5 -3 -10 -15 -10 -26 0 -18 -10 -19 -288 -19 -269 0 -290
-1 -306 -19 -9 -10 -18 -32 -19 -50 -1 -17 -5 -31 -9 -31 -4 0 -17 -33 -28
-72 -12 -40 -33 -107 -46 -148 -13 -41 -24 -82 -24 -92 0 -10 -5 -18 -11 -18
-5 0 -8 -4 -5 -8 2 -4 -4 -34 -15 -67 -24 -72 -24 -91 -1 -101 9 -4 132 -8
273 -9 141 -1 261 -5 267 -9 12 -7 -7 -66 -21 -66 -4 0 -6 -4 -3 -8 3 -5 -3
-35 -13 -68 -17 -58 -18 -59 -54 -59 -20 0 -42 -6 -49 -13 -11 -11 -2 -13 46
-10 l59 3 39 120 c20 66 38 123 38 128 0 4 -131 7 -291 7 l-290 0 7 23 c28 87
143 461 155 500 l14 48 295 -1 295 -1 41 120 40 121 -511 0 -511 0 -31 -97z
m887 72 c9 -6 -5 -64 -18 -77 -5 -5 -149 -9 -320 -8 -212 0 -318 -3 -335 -11
-19 -9 -29 -25 -40 -68 -15 -55 -38 -132 -110 -356 -90 -281 -117 -371 -117
-387 0 -13 8 -18 28 -18 15 -1 161 -1 325 0 329 0 313 3 284 -64 l-12 -29
-413 -1 c-282 -2 -415 1 -421 8 -9 12 57 229 71 234 4 2 6 7 3 12 -5 8 64 231
74 240 3 3 8 19 10 35 1 17 6 35 10 40 4 6 18 46 30 90 13 44 36 121 53 170
17 50 31 95 32 100 1 6 8 27 16 47 l14 37 80 3 c159 6 748 8 756 3z"/>
<path d="M2286 2150 l-88 -5 -24 -62 -23 -63 93 0 92 0 26 65 c14 36 23 66 19
68 -3 1 -46 0 -95 -3z m40 -28 c19 -6 20 -9 8 -38 -12 -30 -18 -32 -74 -39
-34 -4 -63 -5 -66 -2 -6 6 13 54 28 72 13 15 67 18 104 7z"/>
</g>
</svg>
